{"title":"Escape Plan 2013 HDRip x264 AAC-MiLLENiUM","uid":9452596,"size":773016755,"categoryP":"video","categoryS":"movies","magnet":"?xt=urn:btih:486d0821e57e48401fc9b15c4032387877d6942e&amp;dn=Escape+Plan+2013+HDRip+x264+AAC-MiLLENiUM&amp;tr=udp%3A%2F%2Ftracker.openbittorrent.com%3A80&amp;tr=udp%3A%2F%2Fopen.demonii.com%3A1337&amp;tr=udp%3A%2F%2Ftracker.coppersurfer.tk%3A6969&amp;tr=udp%3A%2F%2Fexodus.desync.com%3A6969","seeders":0,"leechers":1,"uploader":".BONE.","files":4,"time":1389205916,"description":"When a structural-security authority finds himself set up and incarcerated in the world's most secret and secure prison, he has to use his skills to escape with help from the inside. \n\nGeneral\n\nSource...............: HDTV 1080p-KingStoner [THANKS]\nIMDb Information.... : http://www.imdb.com/title/tt1211956/\nSample Included......: yes\n\nGeneral\nComplete name : Escape Plan 2013 HDRip x264 AAC-MiLLENiUM.mp4\nFormat : MPEG-4\nFormat profile : Base Media\nCodec ID : isom\nFile size : 727 MiB\nDuration : 1h 50mn\nOverall bit rate mode : Variable\nOverall bit rate : 919 Kbps\nEncoded date : UTC 2014-01-06 21:02:10\nTagged date : UTC 2014-01-06 21:02:10\n\nVideo\nID : 1\nFormat : AVC\nFormat/Info : Advanced Video Codec\nFormat profile : &lt;a class=&quot;__cf_email__&quot; href=&quot;/cdn-cgi/l/email-protection&quot; data-cfemail=&quot;a2eacbc5cae2ee968c93&quot;&gt;[email&amp;#160;protected]&lt;/a&gt;&lt;script cf-hash='f9e31' type=&quot;text/javascript&quot;&gt;\n/* &lt;![CDATA[ */!function(){try{var t=&quot;currentScript&quot;in document?document.currentScript:function(){for(var t=document.getElementsByTagName(&quot;script&quot;),e=t.length;e--;)if(t[e].getAttribute(&quot;cf-hash&quot;))return t[e]}();if(t&amp;&amp;t.previousSibling){var e,r,n,i,c=t.previousSibling,a=c.getAttribute(&quot;data-cfemail&quot;);if(a){for(e=&quot;&quot;,r=parseInt(a.substr(0,2),16),n=2;a.length-n;n+=2)i=parseInt(a.substr(n,2),16)^r,e+=String.fromCharCode(i);e=document.createTextNode(e),c.parentNode.replaceChild(e,c)}}}catch(u){}}();/* ]]&gt; */&lt;/script&gt;\nFormat settings, CABAC : Yes\nFormat settings, ReFrames : 3 frames\nCodec ID : avc1\nCodec ID/Info : Advanced Video Coding\nDuration : 1h 50mn\nBit rate mode : Variable\nBit rate : 663 Kbps\nMaximum bit rate : 40.0 Mbps\nWidth : 720 pixels\nHeight : 304 pixels\nDisplay aspect ratio : 2.35:1\nFrame rate mode : Constant\nFrame rate : 25.000 fps\nColor space : YUV\nChroma subsampling : 4:2:0\nBit depth : 8 bits\nScan type : Progressive\nBits/(Pixel*Frame) : 0.121\nStream size : 525 MiB (72%)\nWriting library : x264 core 140 r2377 1ca7bb9\n\nAudio\nID : 2\nFormat : AAC\nFormat/Info : Advanced Audio Codec\nFormat profile : LC\nCodec ID : 40\nDuration : 1h 50mn\nBit rate mode : Variable\nBit rate : 251 Kbps\nMaximum bit rate : 259 Kbps\nChannel(s) : 2 channels\nChannel positions : Front: L R\nSampling rate : 48.0 KHz\nCompression mode : Lossy\nStream size : 199 MiB (27%)\nLanguage : English\nEncoded date : UTC 2014-01-06 21:02:30\nTagged date : UTC 2014-01-06 21:02:33","torrent":{"xt":"urn:btih:486d0821e57e48401fc9b15c4032387877d6942e","amp;dn":"Escape+Plan+2013+HDRip+x264+AAC-MiLLENiUM","amp;tr":["udp%3A%2F%2Ftracker.openbittorrent.com%3A80","udp%3A%2F%2Fopen.demonii.com%3A1337","udp%3A%2F%2Ftracker.coppersurfer.tk%3A6969","udp%3A%2F%2Fexodus.desync.com%3A6969"],"infoHash":"486d0821e57e48401fc9b15c4032387877d6942e","infoHashBuffer":{"type":"Buffer","data":[72,109,8,33,229,126,72,64,31,201,177,92,64,50,56,120,119,214,148,46]},"announce":[],"urlList":[]}}